<?xml version="1.0" encoding="UTF-8"?>
<!-- Created with Inkscape (http://www.inkscape.org/) -->
<svg version="1.1" viewBox="0 0 1122.5 793.7" xmlns="http://www.w3.org/2000/svg" xmlns:xlink="http://www.w3.org/1999/xlink">
 <defs>
  <clipPath id="clipPath2">
   <path transform="translate(-690.18 -260.79)" d="M 0,595.276 H 841.89 V 0 H 0 Z"/>
  </clipPath>
  <clipPath id="clipPath4">
   <path transform="translate(-505.05 -404.61)" d="M 0,595.276 H 841.89 V 0 H 0 Z"/>
  </clipPath>
 </defs>
 <g transform="translate(132.79 48.892)" fill="currentColor">
  <path transform="matrix(1.7591 0 0 -1.7591 1034.9 472.59)" d="m0 0c-15.09-16.551-42.146-26.737-76.181-28.68-28.512-1.625-59.838 3.199-77.917 12.012-14.345 6.992-32.452 35.864-40.076 70.553h212.01c-2.802-23.396-9.278-44.501-17.832-53.885m40.682 107.76c-3.486 23.166-11.042 38.326-22.459 45.059-51.735 30.512-128.38 29.711-177.35 13.147-6.103-2.064-9.379-8.685-7.314-14.789 2.064-6.103 8.683-9.38 14.789-7.314 42.864 14.496 112.82 15.52 158.02-11.142 3.522-2.079 8.579-10.771 11.236-28.432 1.284-8.526 1.833-17.738 1.741-27.066h-227.42c-3.363 0-6.562-1.452-8.778-3.982-2.215-2.531-3.231-5.894-2.786-9.228 6.076-45.542 29.856-89.243 55.314-101.65 18.925-9.228 48.081-14.688 76.914-14.686 4.203 0 8.402 0.115 12.558 0.353 40.162 2.293 72.867 15.168 92.092 36.254 21.574 23.661 29.537 82.949 23.44 123.48m-381.83-31.176h-216.67c-0.124 9.553 0.421 18.993 1.734 27.719 2.657 17.653 7.709 26.341 11.229 28.418 44.463 26.236 116.19 25.931 159.84 10.483 21.124-7.476 35.122-17.921 39.415-29.414 3.854-10.32 5.361-23.038 4.452-37.206m-36.084 88.616c-48.028 16.999-127.26 18.432-179.48-12.383-11.41-6.731-18.962-21.886-22.447-45.042-6.099-40.53 1.858-99.824 23.425-123.49 19.216-21.087 51.908-33.962 92.054-36.255 4.155-0.238 8.347-0.355 12.549-0.355 28.818 0 57.967 5.461 76.884 14.688 5.791 2.825 8.196 9.809 5.371 15.6-2.825 5.792-9.809 8.197-15.6 5.371-18.066-8.811-49.358-13.636-77.874-12.01-34.016 1.943-61.055 12.128-76.137 28.678-8.475 9.3-14.907 30.107-17.748 53.249h225.62c5.828 0 10.763 4.302 11.558 10.077 3.03 22.034 1.409 42.307-4.687 58.628-6.847 18.331-25.343 33.286-53.489 43.245" clip-path="url(#clipPath2)"/>
  <path transform="matrix(1.3333 0 0 -1.3333 673.4 254.22)" d="m0 0c-35.178 22.821-67.261 21.32-87.984 16.043-22.438-5.715-36.66-17.013-37.255-17.491-3.513-2.826-5.084-7.424-4.033-11.809 18.102-75.546-13.86-111.22-15.396-112.88-4.413-4.649-4.25-11.994 0.378-16.442 2.263-2.174 5.175-3.255 8.083-3.255 3.064 0 6.123 1.199 8.414 3.582 1.692 1.762 40.082 42.914 22.978 126.48 13.689 8.113 49.702 23.708 92.115-3.809 5.407-3.508 12.629-1.969 16.137 3.438 3.507 5.404 1.968 12.629-3.437 16.136" clip-path="url(#clipPath4)"/>
 </g>
</svg>
